<?xml version="1.0" encoding="utf-8"?>
<!-- Generator: Adobe Illustrator 21.1.0, SVG Export Plug-In . SVG Version: 6.00 Build 0)  -->
<svg version="1.1" id="Layer_1" xmlns="http://www.w3.org/2000/svg" xmlns:xlink="http://www.w3.org/1999/xlink" x="0px" y="0px"
	 viewBox="0 0 201.2 117.4" style="enable-background:new 0 0 201.2 117.4;" xml:space="preserve">
<style type="text/css">
	.st0{fill:#46BA84;}
	.st1{fill:#066F4A;}
</style>
<g>
	<path class="st0" d="M25,15.8c2.5,0.4,4,0.7,4.5,0.7l-0.2,6.3c-4.9-0.9-8.7-1.3-11.4-1.3c-3.8,0-6.6,0.8-8.2,2.4
		C8,25.4,7.1,28,7.1,31.6v24c0,3.6,0.8,6.2,2.5,7.8c1.7,1.5,4.4,2.3,8.3,2.3c2.7,0,6.5-0.4,11.4-1.3l0.2,6.5
		c-0.4,0.1-1.9,0.3-4.5,0.7c-2.5,0.4-4.9,0.6-7.1,0.6c-6.4,0-11-1.4-13.8-4.1C1.4,65.3,0,61.1,0,55.2V32.1C0,26.3,1.4,22,4.1,19.3
		c2.7-2.7,7.3-4.1,13.8-4.1C20.1,15.2,22.4,15.4,25,15.8z"/>
</g>
<g>
	<path class="st0" d="M71.3,19.9c3,3.1,4.5,7.6,4.5,13.4v20.9c0,5.8-1.5,10.2-4.5,13.4c-3,3.1-7.6,4.7-13.9,4.7
		c-6.3,0-10.9-1.6-13.9-4.7c-3-3.1-4.5-7.6-4.5-13.4V33.2c0-5.8,1.5-10.2,4.5-13.4c3-3.1,7.6-4.7,13.9-4.7
		C63.7,15.2,68.3,16.7,71.3,19.9z M49.1,24.2c-1.9,1.8-2.8,4.6-2.8,8.1v22.5c0,3.6,0.9,6.3,2.8,8.2c1.9,1.9,4.7,2.8,8.4,2.8
		c3.7,0,6.5-0.9,8.4-2.8c1.9-1.9,2.8-4.6,2.8-8.2V32.5c0-3.6-0.9-6.3-2.8-8.2c-1.9-1.9-4.7-2.8-8.4-2.8C53.8,21.5,51,22.4,49.1,24.2
		z"/>
</g>
<g>
	<path class="st0" d="M117.2,19c3.1,2.6,4.7,6.2,4.7,10.8V32c0,3.2-0.9,6.1-2.7,8.6c-1.8,2.5-4.4,4.2-7.7,5.2l14.3,25.4h-8
		l-13.4-23.9c-0.4,0.1-1.3,0.1-2.7,0.1c-2.2,0-4.5-0.1-6.6-0.3v24h-7.1V15.5c6.3-0.2,11.1-0.3,14.6-0.3
		C109.2,15.2,114,16.5,117.2,19z M95.1,21.4v19.8c3,0.3,5.5,0.4,7.6,0.4c8.1,0,12.1-3.3,12.1-9.8v-1.7c0-3-1-5.3-2.9-6.7
		c-2-1.5-5.1-2.2-9.4-2.2C100.5,21.2,98.1,21.3,95.1,21.4z"/>
</g>
<g>
	<path class="st0" d="M164.1,20.8c3.6,3.8,5.4,9.2,5.4,16.3v13.8c0,6.8-1.8,12.1-5.4,15.8c-3.6,3.7-8.9,5.5-15.8,5.5
		c-4.8,0-9.7-0.2-15-0.5V15.5c5-0.2,10.2-0.3,15.4-0.3C155.3,15.2,160.5,17.1,164.1,20.8z M140.4,21.4v44.2c3.3,0.3,5.9,0.5,7.8,0.5
		c4.3,0,7.7-1.2,10.3-3.7c2.5-2.5,3.8-6.1,3.8-10.8V36.7c0-5.1-1.2-8.9-3.7-11.6c-2.5-2.6-5.9-3.9-10.4-3.9
		C146.5,21.2,143.9,21.3,140.4,21.4z"/>
</g>
<g>
	<path class="st1" d="M12.9,93.3c0.4,0.1,0.6,0.1,0.6,0.1l0,0.9c-0.7-0.1-1.2-0.2-1.6-0.2c-0.5,0-0.9,0.1-1.2,0.3
		c-0.2,0.2-0.4,0.6-0.4,1.1V99c0,0.5,0.1,0.9,0.4,1.1s0.6,0.3,1.2,0.3c0.4,0,0.9-0.1,1.6-0.2l0,0.9c-0.1,0-0.3,0-0.6,0.1
		c-0.4,0.1-0.7,0.1-1,0.1c-0.9,0-1.6-0.2-2-0.6c-0.4-0.4-0.6-1-0.6-1.8v-3.3c0-0.8,0.2-1.4,0.6-1.8c0.4-0.4,1-0.6,2-0.6
		C12.2,93.2,12.5,93.2,12.9,93.3z"/>
</g>
<g>
	<path class="st1" d="M18.5,95.8c0.3,0.4,0.5,0.9,0.5,1.6v1.8c0,0.7-0.2,1.2-0.5,1.6c-0.3,0.4-0.9,0.6-1.6,0.6s-1.2-0.2-1.6-0.6
		c-0.3-0.4-0.5-0.9-0.5-1.6v-1.8c0-0.7,0.2-1.2,0.5-1.6c0.3-0.4,0.9-0.6,1.6-0.6S18.2,95.4,18.5,95.8z M16.1,96.4
		c-0.2,0.2-0.3,0.5-0.3,0.9v1.9c0,0.4,0.1,0.7,0.3,0.9c0.2,0.2,0.5,0.3,0.8,0.3c0.3,0,0.6-0.1,0.8-0.3c0.2-0.2,0.3-0.5,0.3-0.9v-2
		c0-0.4-0.1-0.7-0.3-0.9c-0.2-0.2-0.5-0.3-0.8-0.3C16.6,96,16.3,96.1,16.1,96.4z"/>
</g>
<g>
	<path class="st1" d="M24.3,95.7c0.3,0.3,0.4,0.8,0.4,1.5v4h-1v-3.9c0-0.8-0.3-1.2-0.8-1.2c-0.2,0-0.5,0.1-0.7,0.3
		c-0.2,0.2-0.4,0.4-0.6,0.7v4.1h-1v-5.9h1v0.9c0.2-0.3,0.5-0.6,0.7-0.8c0.3-0.2,0.6-0.3,0.9-0.3C23.7,95.2,24,95.4,24.3,95.7z"/>
</g>
<g>
	<path class="st1" d="M29.3,95.3l0,0.9c-0.4-0.1-0.8-0.1-1.1-0.1c-0.7,0-1.1,0.2-1.1,0.7v0.1c0,0.1,0,0.3,0.1,0.3
		c0.1,0.1,0.2,0.2,0.4,0.3l1.1,0.5c0.7,0.3,1,0.8,1,1.4v0.3c0,0.6-0.2,1-0.5,1.2s-0.8,0.4-1.5,0.4c-0.4,0-0.9-0.1-1.5-0.3l0-0.9
		c0.6,0.2,1.1,0.3,1.5,0.3c0.4,0,0.7-0.1,0.8-0.2c0.2-0.1,0.2-0.3,0.2-0.5v-0.1c0-0.2,0-0.3-0.1-0.5c-0.1-0.1-0.2-0.2-0.4-0.3
		l-1.2-0.5c-0.4-0.2-0.6-0.4-0.8-0.6c-0.2-0.2-0.2-0.5-0.2-0.8v-0.2c0-0.5,0.2-1,0.5-1.2c0.3-0.3,0.8-0.4,1.5-0.4
		C28.4,95.2,28.8,95.2,29.3,95.3z"/>
</g>
<g>
	<path class="st1" d="M34.6,95.8c0.3,0.4,0.5,0.9,0.5,1.6v1.8c0,0.7-0.2,1.2-0.5,1.6c-0.3,0.4-0.9,0.6-1.6,0.6s-1.2-0.2-1.6-0.6
		c-0.3-0.4-0.5-0.9-0.5-1.6v-1.8c0-0.7,0.2-1.2,0.5-1.6c0.3-0.4,0.9-0.6,1.6-0.6S34.2,95.4,34.6,95.8z M32.2,96.4
		c-0.2,0.2-0.3,0.5-0.3,0.9v1.9c0,0.4,0.1,0.7,0.3,0.9c0.2,0.2,0.5,0.3,0.8,0.3c0.3,0,0.6-0.1,0.8-0.3c0.2-0.2,0.3-0.5,0.3-0.9v-2
		c0-0.4-0.1-0.7-0.3-0.9C33.6,96.1,33.3,96,33,96C32.6,96,32.4,96.1,32.2,96.4z"/>
</g>
<g>
	<path class="st1" d="M39.5,95.2v1.2c-0.1,0-0.3,0-0.5,0c-0.6,0-1,0.3-1.3,0.8v4h-1v-5.9h1v0.9c0.2-0.3,0.5-0.6,0.7-0.8
		c0.3-0.2,0.6-0.3,0.9-0.3C39.3,95.2,39.4,95.2,39.5,95.2z"/>
</g>
<g>
	<path class="st1" d="M42,95.3h1.6v0.8H42v3.4c0,0.3,0.1,0.5,0.2,0.7c0.1,0.1,0.3,0.2,0.6,0.2c0.3,0,0.7,0,1-0.1l0,0.9
		c-0.4,0.1-0.7,0.1-1,0.1c-0.6,0-1.1-0.1-1.4-0.4c-0.3-0.3-0.4-0.7-0.4-1.4v-3.3h-0.8v-0.8H41l0.2-1.6H42V95.3z"/>
</g>
<g>
	<path class="st1" d="M45.9,93.1c0.1,0.1,0.2,0.2,0.2,0.4v0.3c0,0.2-0.1,0.3-0.2,0.4c-0.1,0.1-0.3,0.1-0.5,0.1c-0.2,0-0.4,0-0.5-0.1
		c-0.1-0.1-0.2-0.2-0.2-0.4v-0.3c0-0.2,0.1-0.3,0.2-0.4C45,93,45.2,93,45.4,93C45.6,93,45.8,93,45.9,93.1z M45.9,95.3v5.9h-1v-5.9
		H45.9z"/>
</g>
<g>
	<path class="st1" d="M51.7,101.2h-1v-0.8c-0.2,0.3-0.5,0.6-0.7,0.7c-0.3,0.2-0.5,0.3-0.8,0.3c-0.5,0-0.9-0.2-1.1-0.5
		c-0.3-0.3-0.4-0.8-0.4-1.5v-4h1v3.8c0,0.4,0.1,0.7,0.2,0.9c0.1,0.2,0.3,0.3,0.5,0.3c0.2,0,0.4-0.1,0.7-0.3c0.2-0.2,0.4-0.4,0.6-0.7
		v-4.1h1V101.2z"/>
</g>
<g>
	<path class="st1" d="M60.2,95.7c0.3,0.3,0.4,0.8,0.4,1.5v4h-1v-3.9c0-0.8-0.3-1.2-0.8-1.2c-0.2,0-0.5,0.1-0.7,0.3
		c-0.2,0.2-0.4,0.4-0.6,0.7v4.1h-1v-3.9c0-0.8-0.3-1.2-0.8-1.2c-0.2,0-0.5,0.1-0.7,0.3c-0.2,0.2-0.4,0.4-0.6,0.7v4.1h-1v-5.9h1v0.9
		c0.2-0.3,0.4-0.6,0.7-0.8c0.3-0.2,0.6-0.3,0.9-0.3c0.4,0,0.7,0.1,0.9,0.3s0.4,0.5,0.5,0.8c0.2-0.4,0.5-0.6,0.7-0.8
		c0.3-0.2,0.6-0.3,0.9-0.3C59.5,95.2,59.9,95.4,60.2,95.7z"/>
</g>
<g>
	<path class="st1" d="M67.3,92.9v0.8c-0.2,0-0.5-0.1-0.7-0.1c-0.2,0-0.4,0.1-0.6,0.2c-0.1,0.2-0.2,0.4-0.2,0.7v0.7H67v0.8h-1.2v5h-1
		v-5h-0.8v-0.8h0.8v-0.6c0-0.6,0.2-1.1,0.5-1.4s0.7-0.5,1.3-0.5C66.8,92.9,67.1,92.9,67.3,92.9z"/>
</g>
<g>
	<path class="st1" d="M71.5,95.8c0.3,0.4,0.5,0.9,0.5,1.6v1.8c0,0.7-0.2,1.2-0.5,1.6c-0.3,0.4-0.9,0.6-1.6,0.6s-1.2-0.2-1.6-0.6
		c-0.3-0.4-0.5-0.9-0.5-1.6v-1.8c0-0.7,0.2-1.2,0.5-1.6c0.3-0.4,0.9-0.6,1.6-0.6S71.2,95.4,71.5,95.8z M69.1,96.4
		c-0.2,0.2-0.3,0.5-0.3,0.9v1.9c0,0.4,0.1,0.7,0.3,0.9c0.2,0.2,0.5,0.3,0.8,0.3c0.3,0,0.6-0.1,0.8-0.3c0.2-0.2,0.3-0.5,0.3-0.9v-2
		c0-0.4-0.1-0.7-0.3-0.9c-0.2-0.2-0.5-0.3-0.8-0.3C69.6,96,69.3,96.1,69.1,96.4z"/>
</g>
<g>
	<path class="st1" d="M76.4,95.2v1.2c-0.1,0-0.3,0-0.5,0c-0.6,0-1,0.3-1.3,0.8v4h-1v-5.9h1v0.9c0.2-0.3,0.5-0.6,0.7-0.8
		c0.3-0.2,0.6-0.3,0.9-0.3C76.3,95.2,76.3,95.2,76.4,95.2z"/>
</g>
<g>
	<path class="st1" d="M84.2,93.9c0.4,0.4,0.6,1.1,0.6,1.9v3c0,0.8-0.2,1.5-0.6,1.9c-0.4,0.4-1.1,0.7-2,0.7s-1.6-0.2-2-0.7
		c-0.4-0.4-0.6-1.1-0.6-1.9v-3c0-0.8,0.2-1.5,0.6-1.9c0.4-0.4,1.1-0.7,2-0.7S83.8,93.4,84.2,93.9z M81.1,94.5
		c-0.3,0.3-0.4,0.7-0.4,1.2v3.2c0,0.5,0.1,0.9,0.4,1.2c0.3,0.3,0.7,0.4,1.2,0.4s0.9-0.1,1.2-0.4c0.3-0.3,0.4-0.7,0.4-1.2v-3.2
		c0-0.5-0.1-0.9-0.4-1.2c-0.3-0.3-0.7-0.4-1.2-0.4S81.3,94.2,81.1,94.5z"/>
</g>
<g>
	<path class="st1" d="M90.3,95.7c0.3,0.3,0.4,0.8,0.4,1.5v2.1c0,0.6-0.2,1.1-0.5,1.5c-0.3,0.4-0.8,0.5-1.3,0.5c-0.2,0-0.4,0-0.7-0.1
		c-0.2-0.1-0.5-0.2-0.7-0.3v2.5h-1v-8.1h1v0.9c0.4-0.7,1-1,1.6-1C89.6,95.2,90,95.4,90.3,95.7z M88.2,96.4c-0.2,0.2-0.4,0.4-0.6,0.7
		v2.9c0.2,0.1,0.4,0.2,0.6,0.3c0.2,0.1,0.4,0.1,0.6,0.1c0.7,0,1-0.4,1-1.2v-1.8c0-0.8-0.3-1.2-0.8-1.2
		C88.7,96.1,88.4,96.2,88.2,96.4z"/>
</g>
<g>
	<path class="st1" d="M95.7,95.7c0.4,0.4,0.5,0.9,0.5,1.6v1.2h-3.1v0.7c0,0.4,0.1,0.7,0.3,0.9c0.2,0.2,0.5,0.3,0.9,0.3
		c0.4,0,0.9-0.1,1.6-0.2l0,0.9c-0.7,0.1-1.3,0.2-1.6,0.2c-0.8,0-1.4-0.2-1.7-0.5c-0.3-0.3-0.5-0.9-0.5-1.6v-1.9
		c0-0.7,0.2-1.2,0.5-1.6c0.3-0.4,0.9-0.6,1.5-0.6C94.9,95.2,95.4,95.4,95.7,95.7z M93.4,96.3c-0.2,0.2-0.3,0.5-0.3,0.8v0.6h2.1v-0.5
		c0-0.4-0.1-0.7-0.3-0.9c-0.2-0.2-0.4-0.3-0.8-0.3C93.9,96,93.6,96.1,93.4,96.3z"/>
</g>
<g>
	<path class="st1" d="M101.4,95.7c0.3,0.3,0.4,0.8,0.4,1.5v4h-1v-3.9c0-0.8-0.3-1.2-0.8-1.2c-0.2,0-0.5,0.1-0.7,0.3
		c-0.2,0.2-0.4,0.4-0.6,0.7v4.1h-1v-5.9h1v0.9c0.2-0.3,0.5-0.6,0.7-0.8c0.3-0.2,0.6-0.3,0.9-0.3C100.7,95.2,101.1,95.4,101.4,95.7z"
		/>
</g>
<g>
	<path class="st1" d="M109.9,93.7c0.4,0.4,0.7,0.9,0.7,1.5v0.3c0,0.5-0.1,0.9-0.4,1.2c-0.3,0.4-0.6,0.6-1.1,0.8l2,3.6h-1.1l-1.9-3.4
		c-0.1,0-0.2,0-0.4,0c-0.3,0-0.6,0-0.9,0v3.4h-1v-8c0.9,0,1.6,0,2.1,0C108.7,93.2,109.4,93.4,109.9,93.7z M106.7,94.1v2.8
		c0.4,0,0.8,0.1,1.1,0.1c1.2,0,1.7-0.5,1.7-1.4v-0.2c0-0.4-0.1-0.8-0.4-1c-0.3-0.2-0.7-0.3-1.3-0.3C107.5,94,107.1,94.1,106.7,94.1z
		"/>
</g>
<g>
	<path class="st1" d="M115.4,95.7c0.4,0.4,0.5,0.9,0.5,1.6v1.2h-3.1v0.7c0,0.4,0.1,0.7,0.3,0.9c0.2,0.2,0.5,0.3,0.9,0.3
		c0.4,0,0.9-0.1,1.6-0.2l0,0.9c-0.7,0.1-1.3,0.2-1.6,0.2c-0.8,0-1.4-0.2-1.7-0.5c-0.3-0.3-0.5-0.9-0.5-1.6v-1.9
		c0-0.7,0.2-1.2,0.5-1.6c0.3-0.4,0.9-0.6,1.5-0.6C114.6,95.2,115.1,95.4,115.4,95.7z M113.2,96.3c-0.2,0.2-0.3,0.5-0.3,0.8v0.6h2.1
		v-0.5c0-0.4-0.1-0.7-0.3-0.9c-0.2-0.2-0.4-0.3-0.8-0.3C113.6,96,113.3,96.1,113.2,96.3z"/>
</g>
<g>
	<path class="st1" d="M120.2,95.3l0,0.9c-0.4-0.1-0.8-0.1-1.1-0.1c-0.7,0-1.1,0.2-1.1,0.7v0.1c0,0.1,0,0.3,0.1,0.3
		c0.1,0.1,0.2,0.2,0.4,0.3l1.1,0.5c0.7,0.3,1,0.8,1,1.4v0.3c0,0.6-0.2,1-0.5,1.2s-0.8,0.4-1.5,0.4c-0.4,0-0.9-0.1-1.5-0.3l0-0.9
		c0.6,0.2,1.1,0.3,1.5,0.3c0.4,0,0.7-0.1,0.8-0.2c0.2-0.1,0.2-0.3,0.2-0.5v-0.1c0-0.2,0-0.3-0.1-0.5c-0.1-0.1-0.2-0.2-0.4-0.3
		l-1.2-0.5c-0.4-0.2-0.6-0.4-0.8-0.6c-0.2-0.2-0.2-0.5-0.2-0.8v-0.2c0-0.5,0.2-1,0.5-1.2c0.3-0.3,0.8-0.4,1.5-0.4
		C119.4,95.2,119.8,95.2,120.2,95.3z"/>
</g>
<g>
	<path class="st1" d="M125.4,95.7c0.4,0.4,0.5,0.9,0.5,1.6v1.2h-3.1v0.7c0,0.4,0.1,0.7,0.3,0.9c0.2,0.2,0.5,0.3,0.9,0.3
		c0.4,0,0.9-0.1,1.6-0.2l0,0.9c-0.7,0.1-1.3,0.2-1.6,0.2c-0.8,0-1.4-0.2-1.7-0.5c-0.3-0.3-0.5-0.9-0.5-1.6v-1.9
		c0-0.7,0.2-1.2,0.5-1.6c0.3-0.4,0.9-0.6,1.5-0.6C124.5,95.2,125,95.4,125.4,95.7z M123.1,96.3c-0.2,0.2-0.3,0.5-0.3,0.8v0.6h2.1
		v-0.5c0-0.4-0.1-0.7-0.3-0.9c-0.2-0.2-0.4-0.3-0.8-0.3C123.5,96,123.3,96.1,123.1,96.3z"/>
</g>
<g>
	<path class="st1" d="M130.6,95.7c0.3,0.3,0.5,0.8,0.5,1.5v4.1h-1v-0.9c-0.5,0.7-1,1.1-1.6,1.1c-0.5,0-0.8-0.2-1.1-0.5
		s-0.4-0.8-0.4-1.3v-0.3c0-0.5,0.2-0.9,0.5-1.2c0.3-0.3,0.8-0.5,1.3-0.5c0.3,0,0.7,0.1,1.2,0.2V97c0-0.3-0.1-0.6-0.2-0.7
		s-0.4-0.2-0.7-0.2c-0.4,0-0.9,0.1-1.6,0.2v-0.9c0.8-0.1,1.3-0.2,1.6-0.2C129.8,95.2,130.3,95.3,130.6,95.7z M128.3,98.6
		c-0.2,0.2-0.3,0.4-0.3,0.7v0.1c0,0.3,0.1,0.5,0.2,0.7s0.3,0.3,0.5,0.3c0.2,0,0.4-0.1,0.7-0.3s0.4-0.5,0.6-0.8v-0.9
		c-0.3-0.1-0.6-0.1-1-0.1C128.7,98.3,128.5,98.4,128.3,98.6z"/>
</g>
<g>
	<path class="st1" d="M135.5,95.2v1.2c-0.1,0-0.3,0-0.5,0c-0.6,0-1,0.3-1.3,0.8v4h-1v-5.9h1v0.9c0.2-0.3,0.5-0.6,0.7-0.8
		c0.3-0.2,0.6-0.3,0.9-0.3C135.3,95.2,135.4,95.2,135.5,95.2z"/>
</g>
<g>
	<path class="st1" d="M139.8,95.3l0,0.9c-0.5-0.1-0.9-0.2-1.2-0.2c-0.4,0-0.7,0.1-0.9,0.3c-0.2,0.2-0.3,0.5-0.3,0.9v1.9
		c0,0.4,0.1,0.7,0.3,0.9s0.5,0.3,0.8,0.3c0.2,0,0.4,0,0.6,0s0.4-0.1,0.6-0.1l0,0.9c-0.5,0.1-0.9,0.2-1.2,0.2c-1.4,0-2.2-0.7-2.2-2.2
		v-1.8c0-1.5,0.7-2.2,2.2-2.2C138.9,95.2,139.3,95.2,139.8,95.3z"/>
</g>
<g>
	<path class="st1" d="M142.2,96.1c0.4-0.6,1-0.9,1.5-0.9c0.5,0,0.9,0.2,1.2,0.5c0.3,0.3,0.4,0.8,0.4,1.5v4h-1v-3.9
		c0-0.8-0.3-1.2-0.8-1.2c-0.2,0-0.5,0.1-0.7,0.3c-0.2,0.2-0.4,0.4-0.6,0.7v4.1h-1V93h1V96.1z"/>
</g>
<g>
	<path class="st1" d="M153.6,94c0.5,0.5,0.8,1.3,0.8,2.3v2c0,1-0.3,1.7-0.8,2.2c-0.5,0.5-1.3,0.8-2.3,0.8c-0.7,0-1.4,0-2.1-0.1v-8
		c0.7,0,1.5,0,2.2,0C152.3,93.2,153,93.5,153.6,94z M150.2,94.1v6.3c0.5,0,0.8,0.1,1.1,0.1c0.6,0,1.1-0.2,1.5-0.5
		c0.4-0.4,0.5-0.9,0.5-1.5v-2.1c0-0.7-0.2-1.3-0.5-1.6s-0.8-0.6-1.5-0.6C151.1,94,150.7,94.1,150.2,94.1z"/>
</g>
<g>
	<path class="st1" d="M159.2,95.7c0.3,0.3,0.5,0.8,0.5,1.5v4.1h-1v-0.9c-0.5,0.7-1,1.1-1.6,1.1c-0.5,0-0.8-0.2-1.1-0.5
		s-0.4-0.8-0.4-1.3v-0.3c0-0.5,0.2-0.9,0.5-1.2c0.3-0.3,0.8-0.5,1.3-0.5c0.3,0,0.7,0.1,1.2,0.2V97c0-0.3-0.1-0.6-0.2-0.7
		s-0.4-0.2-0.7-0.2c-0.4,0-0.9,0.1-1.6,0.2v-0.9c0.8-0.1,1.3-0.2,1.6-0.2C158.4,95.2,158.9,95.3,159.2,95.7z M157,98.6
		c-0.2,0.2-0.3,0.4-0.3,0.7v0.1c0,0.3,0.1,0.5,0.2,0.7s0.3,0.3,0.5,0.3c0.2,0,0.4-0.1,0.7-0.3s0.4-0.5,0.6-0.8v-0.9
		c-0.3-0.1-0.6-0.1-1-0.1C157.4,98.3,157.1,98.4,157,98.6z"/>
</g>
<g>
	<path class="st1" d="M162.5,95.3h1.6v0.8h-1.6v3.4c0,0.3,0.1,0.5,0.2,0.7c0.1,0.1,0.3,0.2,0.6,0.2c0.3,0,0.7,0,1-0.1l0,0.9
		c-0.4,0.1-0.7,0.1-1,0.1c-0.6,0-1.1-0.1-1.4-0.4c-0.3-0.3-0.4-0.7-0.4-1.4v-3.3h-0.8v-0.8h0.8l0.2-1.6h0.8V95.3z"/>
</g>
<g>
	<path class="st1" d="M168.7,95.7c0.3,0.3,0.5,0.8,0.5,1.5v4.1h-1v-0.9c-0.5,0.7-1,1.1-1.6,1.1c-0.5,0-0.8-0.2-1.1-0.5
		s-0.4-0.8-0.4-1.3v-0.3c0-0.5,0.2-0.9,0.5-1.2c0.3-0.3,0.8-0.5,1.3-0.5c0.3,0,0.7,0.1,1.2,0.2V97c0-0.3-0.1-0.6-0.2-0.7
		s-0.4-0.2-0.7-0.2c-0.4,0-0.9,0.1-1.6,0.2v-0.9c0.8-0.1,1.3-0.2,1.6-0.2C167.9,95.2,168.4,95.3,168.7,95.7z M166.4,98.6
		c-0.2,0.2-0.3,0.4-0.3,0.7v0.1c0,0.3,0.1,0.5,0.2,0.7s0.3,0.3,0.5,0.3c0.2,0,0.4-0.1,0.7-0.3s0.4-0.5,0.6-0.8v-0.9
		c-0.3-0.1-0.6-0.1-1-0.1C166.8,98.3,166.6,98.4,166.4,98.6z"/>
</g>
<g>
	<path class="st1" d="M91.5,107.4c0.1,0.1,0.2,0.2,0.2,0.4v0.3c0,0.2-0.1,0.3-0.2,0.4c-0.1,0.1-0.3,0.1-0.5,0.1
		c-0.2,0-0.4,0-0.5-0.1c-0.1-0.1-0.2-0.2-0.2-0.4v-0.3c0-0.2,0.1-0.3,0.2-0.4c0.1-0.1,0.3-0.1,0.5-0.1
		C91.2,107.2,91.4,107.3,91.5,107.4z M91.5,109.6v5.9h-1v-5.9H91.5z"/>
</g>
<g>
	<path class="st1" d="M96.9,110c0.3,0.3,0.4,0.8,0.4,1.5v4h-1v-3.9c0-0.8-0.3-1.2-0.8-1.2c-0.2,0-0.5,0.1-0.7,0.3
		c-0.2,0.2-0.4,0.4-0.6,0.7v4.1h-1v-5.9h1v0.9c0.2-0.3,0.5-0.6,0.7-0.8c0.3-0.2,0.6-0.3,0.9-0.3C96.3,109.4,96.7,109.6,96.9,110z"/>
</g>
<g>
	<path class="st1" d="M102.4,109.6h1.6v0.8h-1.6v3.4c0,0.3,0.1,0.5,0.2,0.7c0.1,0.1,0.3,0.2,0.6,0.2c0.3,0,0.7,0,1-0.1l0,0.9
		c-0.4,0.1-0.7,0.1-1,0.1c-0.6,0-1.1-0.1-1.4-0.4c-0.3-0.3-0.4-0.7-0.4-1.4v-3.3h-0.8v-0.8h0.8l0.2-1.6h0.8V109.6z"/>
</g>
<g>
	<path class="st1" d="M106.3,110.4c0.4-0.6,1-0.9,1.5-0.9c0.5,0,0.9,0.2,1.2,0.5c0.3,0.3,0.4,0.8,0.4,1.5v4h-1v-3.9
		c0-0.8-0.3-1.2-0.8-1.2c-0.2,0-0.5,0.1-0.7,0.3c-0.2,0.2-0.4,0.4-0.6,0.7v4.1h-1v-8.2h1V110.4z"/>
</g>
<g>
	<path class="st1" d="M114.5,110c0.4,0.4,0.5,0.9,0.5,1.6v1.2h-3.1v0.7c0,0.4,0.1,0.7,0.3,0.9c0.2,0.2,0.5,0.3,0.9,0.3
		c0.4,0,0.9-0.1,1.6-0.2l0,0.9c-0.7,0.1-1.3,0.2-1.6,0.2c-0.8,0-1.4-0.2-1.7-0.5c-0.3-0.3-0.5-0.9-0.5-1.6v-1.9
		c0-0.7,0.2-1.2,0.5-1.6c0.3-0.4,0.9-0.6,1.5-0.6C113.6,109.4,114.1,109.6,114.5,110z M112.2,110.6c-0.2,0.2-0.3,0.5-0.3,0.8v0.6
		h2.1v-0.5c0-0.4-0.1-0.7-0.3-0.9c-0.2-0.2-0.4-0.3-0.8-0.3C112.6,110.3,112.4,110.4,112.2,110.6z"/>
</g>
<g>
	<path class="st1" d="M123.8,107.6v7.9h-1v-3.6h-3.1v3.6h-1v-7.9h1v3.3h3.1v-3.3H123.8z"/>
</g>
<g>
	<path class="st1" d="M129.6,115.4h-1v-0.8c-0.2,0.3-0.5,0.6-0.7,0.7c-0.3,0.2-0.5,0.3-0.8,0.3c-0.5,0-0.9-0.2-1.1-0.5
		c-0.3-0.3-0.4-0.8-0.4-1.5v-4h1v3.8c0,0.4,0.1,0.7,0.2,0.9c0.1,0.2,0.3,0.3,0.5,0.3c0.2,0,0.4-0.1,0.7-0.3c0.2-0.2,0.4-0.4,0.6-0.7
		v-4.1h1V115.4z"/>
</g>
<g>
	<path class="st1" d="M138.1,110c0.3,0.3,0.4,0.8,0.4,1.5v4h-1v-3.9c0-0.8-0.3-1.2-0.8-1.2c-0.2,0-0.5,0.1-0.7,0.3
		c-0.2,0.2-0.4,0.4-0.6,0.7v4.1h-1v-3.9c0-0.8-0.3-1.2-0.8-1.2c-0.2,0-0.5,0.1-0.7,0.3c-0.2,0.2-0.4,0.4-0.6,0.7v4.1h-1v-5.9h1v0.9
		c0.2-0.3,0.4-0.6,0.7-0.8c0.3-0.2,0.6-0.3,0.9-0.3c0.4,0,0.7,0.1,0.9,0.3s0.4,0.5,0.5,0.8c0.2-0.4,0.5-0.6,0.7-0.8
		c0.3-0.2,0.6-0.3,0.9-0.3C137.4,109.4,137.8,109.6,138.1,110z"/>
</g>
<g>
	<path class="st1" d="M143.5,109.9c0.3,0.3,0.5,0.8,0.5,1.5v4.1h-1v-0.9c-0.5,0.7-1,1.1-1.6,1.1c-0.5,0-0.8-0.2-1.1-0.5
		s-0.4-0.8-0.4-1.3v-0.3c0-0.5,0.2-0.9,0.5-1.2c0.3-0.3,0.8-0.5,1.3-0.5c0.3,0,0.7,0.1,1.2,0.2v-0.7c0-0.3-0.1-0.6-0.2-0.7
		s-0.4-0.2-0.7-0.2c-0.4,0-0.9,0.1-1.6,0.2v-0.9c0.8-0.1,1.3-0.2,1.6-0.2C142.6,109.4,143.1,109.6,143.5,109.9z M141.2,112.8
		c-0.2,0.2-0.3,0.4-0.3,0.7v0.1c0,0.3,0.1,0.5,0.2,0.7s0.3,0.3,0.5,0.3c0.2,0,0.4-0.1,0.7-0.3s0.4-0.5,0.6-0.8v-0.9
		c-0.3-0.1-0.6-0.1-1-0.1C141.6,112.6,141.3,112.7,141.2,112.8z"/>
</g>
<g>
	<path class="st1" d="M149.3,110c0.3,0.3,0.4,0.8,0.4,1.5v4h-1v-3.9c0-0.8-0.3-1.2-0.8-1.2c-0.2,0-0.5,0.1-0.7,0.3
		c-0.2,0.2-0.4,0.4-0.6,0.7v4.1h-1v-5.9h1v0.9c0.2-0.3,0.5-0.6,0.7-0.8c0.3-0.2,0.6-0.3,0.9-0.3C148.6,109.4,149,109.6,149.3,110z"
		/>
</g>
<g>
	<path class="st1" d="M152.4,107.4c0.1,0.1,0.2,0.2,0.2,0.4v0.3c0,0.2-0.1,0.3-0.2,0.4c-0.1,0.1-0.3,0.1-0.5,0.1
		c-0.2,0-0.4,0-0.5-0.1c-0.1-0.1-0.2-0.2-0.2-0.4v-0.3c0-0.2,0.1-0.3,0.2-0.4c0.1-0.1,0.3-0.1,0.5-0.1
		C152.1,107.2,152.3,107.3,152.4,107.4z M152.4,109.6v5.9h-1v-5.9H152.4z"/>
</g>
<g>
	<path class="st1" d="M155.3,109.6h1.6v0.8h-1.6v3.4c0,0.3,0.1,0.5,0.2,0.7c0.1,0.1,0.3,0.2,0.6,0.2c0.3,0,0.7,0,1-0.1l0,0.9
		c-0.4,0.1-0.7,0.1-1,0.1c-0.6,0-1.1-0.1-1.4-0.4c-0.3-0.3-0.4-0.7-0.4-1.4v-3.3h-0.8v-0.8h0.8l0.2-1.6h0.8V109.6z"/>
</g>
<g>
	<path class="st1" d="M159.1,107.4c0.1,0.1,0.2,0.2,0.2,0.4v0.3c0,0.2-0.1,0.3-0.2,0.4c-0.1,0.1-0.3,0.1-0.5,0.1
		c-0.2,0-0.4,0-0.5-0.1c-0.1-0.1-0.2-0.2-0.2-0.4v-0.3c0-0.2,0.1-0.3,0.2-0.4c0.1-0.1,0.3-0.1,0.5-0.1
		C158.9,107.2,159,107.3,159.1,107.4z M159.2,109.6v5.9h-1v-5.9H159.2z"/>
</g>
<g>
	<path class="st1" d="M164.3,110c0.4,0.4,0.5,0.9,0.5,1.6v1.2h-3.1v0.7c0,0.4,0.1,0.7,0.3,0.9c0.2,0.2,0.5,0.3,0.9,0.3
		c0.4,0,0.9-0.1,1.6-0.2l0,0.9c-0.7,0.1-1.3,0.2-1.6,0.2c-0.8,0-1.4-0.2-1.7-0.5c-0.3-0.3-0.5-0.9-0.5-1.6v-1.9
		c0-0.7,0.2-1.2,0.5-1.6c0.3-0.4,0.9-0.6,1.5-0.6C163.4,109.4,163.9,109.6,164.3,110z M162,110.6c-0.2,0.2-0.3,0.5-0.3,0.8v0.6h2.1
		v-0.5c0-0.4-0.1-0.7-0.3-0.9c-0.2-0.2-0.4-0.3-0.8-0.3C162.4,110.3,162.2,110.4,162,110.6z"/>
</g>
<g>
	<path class="st1" d="M169.1,109.6l0,0.9c-0.4-0.1-0.8-0.1-1.1-0.1c-0.7,0-1.1,0.2-1.1,0.7v0.1c0,0.1,0,0.3,0.1,0.3
		c0.1,0.1,0.2,0.2,0.4,0.3l1.1,0.5c0.7,0.3,1,0.8,1,1.4v0.3c0,0.6-0.2,1-0.5,1.2s-0.8,0.4-1.5,0.4c-0.4,0-0.9-0.1-1.5-0.3l0-0.9
		c0.6,0.2,1.1,0.3,1.5,0.3c0.4,0,0.7-0.1,0.8-0.2c0.2-0.1,0.2-0.3,0.2-0.5v-0.1c0-0.2,0-0.3-0.1-0.5c-0.1-0.1-0.2-0.2-0.4-0.3
		l-1.2-0.5c-0.4-0.2-0.6-0.4-0.8-0.6c-0.2-0.2-0.2-0.5-0.2-0.8v-0.2c0-0.5,0.2-1,0.5-1.2c0.3-0.3,0.8-0.4,1.5-0.4
		C168.2,109.4,168.6,109.5,169.1,109.6z"/>
</g>
<g>
	<path class="st0" d="M199.9,0v31.4h-4.1V17h-12.5v14.4h-4.1V0h4.1v13.4h12.5V0H199.9z"/>
</g>
</svg>
