<?xml version="1.0" encoding="UTF-8" standalone="no"?>
<!DOCTYPE svg PUBLIC "-//W3C//DTD SVG 1.1//EN" "http://www.w3.org/Graphics/SVG/1.1/DTD/svg11.dtd">
<svg xmlns="http://www.w3.org/2000/svg" xmlns:xl="http://www.w3.org/1999/xlink" version="1.1" viewBox="0 0 200 73" width="200pt" height="73pt" xmlns:dc="http://purl.org/dc/elements/1.1/">
  <metadata> Produced by OmniGraffle 7.6.1 
    <dc:date>2018-08-08 07:41:10 +0000</dc:date>
  </metadata>
  <defs/>
  <g stroke="none" stroke-opacity="1" stroke-dasharray="none" fill="none" fill-opacity="1">
    <title>Canvas 1</title>
    <g>
      <title>Layer 1</title>
      <path d="M 25 15.8 C 27.5 16.2 29 16.5 29.5 16.5 L 29.3 22.8 C 24.4 21.9 20.6 21.5 17.9 21.5 C 14.1 21.5 11.3 22.3 9.7 23.9 C 8 25.4 7.1 28 7.1 31.6 L 7.1 55.6 C 7.1 59.2 7.9 61.8 9.6 63.4 C 11.3 64.9 14 65.7 17.9 65.7 C 20.6 65.7 24.4 65.3 29.3 64.4 L 29.5 70.9 C 29.1 71 27.6 71.2 25 71.6 C 22.5 72 20.1 72.2 17.9 72.2 C 11.5 72.2 6.9 70.8 4.1 68.1 C 1.4 65.3 -35527137e-22 61.1 -35527137e-22 55.2 L -35527137e-22 32.1 C -35527137e-22 26.3 1.4 22 4.1 19.3 C 6.8 16.6 11.4 15.2 17.9 15.2 C 20.1 15.2 22.4 15.4 25 15.8 Z" fill="#3198e1"/>
      <path d="M 71.3 19.9 C 74.3 23 75.8 27.5 75.8 33.3 L 75.8 54.2 C 75.8 60 74.3 64.4 71.3 67.6 C 68.3 70.7 63.7 72.3 57.4 72.3 C 51.1 72.3 46.5 70.7 43.5 67.6 C 40.5 64.5 39 60 39 54.2 L 39 33.2 C 39 27.4 40.5 23 43.5 19.8 C 46.5 16.7 51.1 15.1 57.4 15.1 C 63.7 15.2 68.3 16.7 71.3 19.9 Z M 49.1 24.2 C 47.2 26 46.3 28.8 46.3 32.3 L 46.3 54.8 C 46.3 58.4 47.2 61.1 49.1 63 C 51 64.9 53.8 65.8 57.5 65.8 C 61.2 65.8 64 64.9 65.9 63 C 67.8 61.1 68.7 58.4 68.7 54.8 L 68.7 32.5 C 68.7 28.9 67.8 26.2 65.9 24.3 C 64 22.4 61.2 21.5 57.5 21.5 C 53.8 21.5 51 22.4 49.1 24.2 Z" fill="#3198e1"/>
      <path d="M 117.2 19 C 120.3 21.6 121.9 25.2 121.9 29.8 L 121.9 32 C 121.9 35.2 121 38.1 119.2 40.6 C 117.4 43.1 114.8 44.8 111.5 45.8 L 125.8 71.2 L 117.8 71.2 L 104.4 47.3 C 104 47.4 103.1 47.4 101.7 47.4 C 99.5 47.4 97.2 47.3 95.1 47.1 L 95.1 71.1 L 88 71.1 L 88 15.5 C 94.3 15.3 99.1 15.2 102.6 15.2 C 109.2 15.2 114 16.5 117.2 19 Z M 95.1 21.4 L 95.1 41.2 C 98.1 41.5 100.6 41.6 102.7 41.6 C 110.8 41.6 114.8 38.3 114.8 31.8 L 114.8 30.1 C 114.8 27.1 113.8 24.8 111.9 23.4 C 109.9 21.9 106.8 21.2 102.5 21.2 C 100.5 21.2 98.1 21.3 95.1 21.4 Z" fill="#3198e1"/>
      <path d="M 164.1 20.8 C 167.7 24.6 169.5 30 169.5 37.1 L 169.5 50.9 C 169.5 57.7 167.7 63 164.1 66.7 C 160.5 70.4 155.2 72.2 148.3 72.2 C 143.5 72.2 138.6 72 133.3 71.7 L 133.3 15.5 C 138.3 15.3 143.5 15.2 148.7 15.2 C 155.3 15.2 160.5 17.1 164.1 20.8 Z M 140.4 21.4 L 140.4 65.6 C 143.7 65.9 146.3 66.1 148.2 66.1 C 152.5 66.1 155.9 64.9 158.5 62.4 C 161 59.9 162.3 56.3 162.3 51.6 L 162.3 36.7 C 162.3 31.6 161.1 27.8 158.6 25.1 C 156.1 22.5 152.7 21.2 148.2 21.2 C 146.5 21.2 143.9 21.3 140.4 21.4 Z" fill="#3198e1"/>
      <path d="M 199.9 0 L 199.9 31.4 L 195.8 31.4 L 195.8 17 L 183.3 17 L 183.3 31.4 L 179.2 31.4 L 179.2 0 L 183.3 0 L 183.3 13.4 L 195.8 13.4 L 195.8 0 Z" fill="#3198e1"/>
    </g>
  </g>
</svg>
